<svg width="10" height="5" viewBox="0 0 10 5" fill="none" xmlns="http://www.w3.org/2000/svg">
<path d="M9.01528 0.765311L5.26528 4.51531C5.23045 4.55018 5.18909 4.57784 5.14357 4.59671C5.09804 4.61558 5.04925 4.62529 4.99996 4.62529C4.95068 4.62529 4.90189 4.61558 4.85636 4.59671C4.81084 4.57784 4.76948 4.55018 4.73465 4.51531L0.984652 0.765311C0.914287 0.694946 0.874756 0.59951 0.874756 0.499999C0.874756 0.400487 0.914287 0.305051 0.984652 0.234686C1.05502 0.164321 1.15045 0.12479 1.24996 0.12479C1.34948 0.12479 1.44491 0.164321 1.51528 0.234686L4.99996 3.71984L8.48465 0.234686C8.51949 0.199845 8.56086 0.172207 8.60638 0.153351C8.6519 0.134495 8.70069 0.12479 8.74996 0.12479C8.79924 0.12479 8.84803 0.134495 8.89355 0.153351C8.93907 0.172207 8.98044 0.199845 9.01528 0.234686C9.05012 0.269527 9.07776 0.31089 9.09661 0.356413C9.11547 0.401935 9.12517 0.450726 9.12517 0.499999C9.12517 0.549272 9.11547 0.598062 9.09661 0.643585C9.07776 0.689107 9.05012 0.73047 9.01528 0.765311Z" fill="#888888"/>
</svg>
