<svg width="24" height="24" viewBox="0 0 24 24" fill="none" xmlns="http://www.w3.org/2000/svg">
<g clip-path="url(#clip0_12_583)">
<path d="M0 0H24V8.00156H0V0Z" fill="#FF9933"/>
<path d="M0 8.00195H24V15.9988H0V8.00195Z" fill="white"/>
<path d="M0 15.998H24V23.9996H0V15.998Z" fill="#128807"/>
<path d="M12.0008 15.1998C13.7681 15.1998 15.2008 13.7671 15.2008 11.9998C15.2008 10.2325 13.7681 8.7998 12.0008 8.7998C10.2335 8.7998 8.80078 10.2325 8.80078 11.9998C8.80078 13.7671 10.2335 15.1998 12.0008 15.1998Z" fill="#000088"/>
<path d="M11.9992 14.7992C13.5456 14.7992 14.7992 13.5456 14.7992 11.9992C14.7992 10.4528 13.5456 9.19922 11.9992 9.19922C10.4528 9.19922 9.19922 10.4528 9.19922 11.9992C9.19922 13.5456 10.4528 14.7992 11.9992 14.7992Z" fill="white"/>
<path d="M11.9995 12.5595C12.3087 12.5595 12.5595 12.3087 12.5595 11.9995C12.5595 11.6902 12.3087 11.4395 11.9995 11.4395C11.6902 11.4395 11.4395 11.6902 11.4395 11.9995C11.4395 12.3087 11.6902 12.5595 11.9995 12.5595Z" fill="#000088"/>
<path d="M14.7575 12.5094C14.8364 12.5198 14.9087 12.4643 14.9191 12.3854C14.9295 12.3066 14.874 12.2343 14.7951 12.2239C14.7163 12.2135 14.6439 12.269 14.6335 12.3478C14.6232 12.4267 14.6787 12.499 14.7575 12.5094Z" fill="#000088"/>
<path d="M12.0003 14.8001L12.0963 13.1201L12.0003 12.3201L11.9043 13.1201L12.0003 14.8001Z" fill="#000088"/>
<path d="M14.5323 13.2052C14.6058 13.2357 14.6901 13.2008 14.7205 13.1273C14.7509 13.0538 14.716 12.9696 14.6426 12.9391C14.5691 12.9087 14.4848 12.9436 14.4544 13.0171C14.424 13.0905 14.4589 13.1748 14.5323 13.2052Z" fill="#000088"/>
<path d="M11.2768 14.7045L11.8043 13.1066L11.9187 12.309L11.6189 13.0569L11.2768 14.7045Z" fill="#000088"/>
<path d="M14.1342 13.8191C14.1973 13.8675 14.2877 13.8556 14.3361 13.7925C14.3846 13.7294 14.3726 13.639 14.3096 13.5906C14.2465 13.5422 14.1561 13.5541 14.1077 13.6172C14.0592 13.6803 14.0711 13.7707 14.1342 13.8191Z" fill="#000088"/>
<path d="M10.601 14.4243L11.5241 13.0173L11.841 12.2765L11.3578 12.9213L10.601 14.4243Z" fill="#000088"/>
<path d="M13.5916 14.3093C13.64 14.3724 13.7304 14.3843 13.7935 14.3359C13.8566 14.2875 13.8685 14.1971 13.8201 14.134C13.7717 14.0709 13.6813 14.059 13.6182 14.1074C13.5551 14.1559 13.5432 14.2462 13.5916 14.3093Z" fill="#000088"/>
<path d="M10.0213 13.9795L11.2771 12.8594L11.7749 12.2258L11.1413 12.7236L10.0213 13.9795Z" fill="#000088"/>
<path d="M12.9377 14.6424C12.9681 14.7159 13.0524 14.7508 13.1259 14.7204C13.1993 14.6899 13.2342 14.6057 13.2038 14.5322C13.1734 14.4587 13.0891 14.4238 13.0156 14.4543C12.9422 14.4847 12.9073 14.5689 12.9377 14.6424Z" fill="#000088"/>
<path d="M9.57433 13.4L11.0773 12.6432L11.7221 12.16L10.9813 12.4769L9.57433 13.4Z" fill="#000088"/>
<path d="M12.2218 14.7953C12.2322 14.8742 12.3045 14.9297 12.3833 14.9193C12.4622 14.9089 12.5177 14.8366 12.5073 14.7578C12.4969 14.6789 12.4246 14.6234 12.3458 14.6338C12.2669 14.6442 12.2114 14.7165 12.2218 14.7953Z" fill="#000088"/>
<path d="M9.29561 12.7246L10.9432 12.3825L11.6911 12.0827L10.8935 12.197L9.29561 12.7246Z" fill="#000088"/>
<path d="M11.4925 14.7573C11.4822 14.8361 11.5377 14.9085 11.6165 14.9188C11.6954 14.9292 11.7677 14.8737 11.7781 14.7949C11.7885 14.716 11.733 14.6437 11.6541 14.6333C11.5753 14.6229 11.5029 14.6784 11.4925 14.7573Z" fill="#000088"/>
<path d="M9.20189 12.0001L10.8819 12.0961L11.6819 12.0001L10.8819 11.9041L9.20189 12.0001Z" fill="#000088"/>
<path d="M10.796 14.5314C10.7656 14.6048 10.8005 14.6891 10.8739 14.7195C10.9474 14.75 11.0316 14.7151 11.0621 14.6416C11.0925 14.5681 11.0576 14.4839 10.9841 14.4534C10.9107 14.423 10.8264 14.4579 10.796 14.5314Z" fill="#000088"/>
<path d="M9.29646 11.2748L10.8944 11.8024L11.692 11.9167L10.9441 11.6169L9.29646 11.2748Z" fill="#000088"/>
<path d="M10.1819 14.1333C10.1335 14.1964 10.1454 14.2867 10.2085 14.3352C10.2716 14.3836 10.362 14.3717 10.4104 14.3086C10.4588 14.2455 10.4469 14.1551 10.3838 14.1067C10.3207 14.0583 10.2303 14.0702 10.1819 14.1333Z" fill="#000088"/>
<path d="M9.5777 10.601L10.9846 11.5241L11.7254 11.841L11.0806 11.3578L9.5777 10.601Z" fill="#000088"/>
<path d="M9.6909 13.5896C9.62781 13.6381 9.61591 13.7285 9.66432 13.7915C9.71274 13.8546 9.80313 13.8665 9.86623 13.8181C9.92932 13.7697 9.94122 13.6793 9.89281 13.6162C9.84439 13.5531 9.754 13.5412 9.6909 13.5896Z" fill="#000088"/>
<path d="M10.0222 10.0193L11.1423 11.2752L11.7759 11.773L11.2781 11.1394L10.0222 10.0193Z" fill="#000088"/>
<path d="M9.35831 12.9375C9.28484 12.9679 9.24994 13.0521 9.28038 13.1256C9.31081 13.1991 9.39505 13.234 9.46852 13.2035C9.542 13.1731 9.57689 13.0889 9.54646 13.0154C9.51602 12.9419 9.43179 12.907 9.35831 12.9375Z" fill="#000088"/>
<path d="M10.6007 9.57506L11.3576 11.078L11.8407 11.7228L11.5238 10.982L10.6007 9.57506Z" fill="#000088"/>
<path d="M9.20636 12.2215C9.12751 12.2319 9.07201 12.3043 9.08239 12.3831C9.09277 12.462 9.1651 12.5175 9.24395 12.5071C9.3228 12.4967 9.3783 12.4244 9.36792 12.3455C9.35754 12.2667 9.28521 12.2112 9.20636 12.2215Z" fill="#000088"/>
<path d="M11.2771 9.29537L11.6192 10.943L11.919 11.6909L11.8047 10.8933L11.2771 9.29537Z" fill="#000088"/>
<path d="M9.24224 11.4906C9.16339 11.4802 9.09105 11.5357 9.08067 11.6146C9.07029 11.6934 9.1258 11.7657 9.20464 11.7761C9.28349 11.7865 9.35583 11.731 9.36621 11.6522C9.37659 11.5733 9.32108 11.501 9.24224 11.4906Z" fill="#000088"/>
<path d="M11.9995 9.19993L11.9035 10.8799L11.9995 11.6799L12.0955 10.8799L11.9995 9.19993Z" fill="#000088"/>
<path d="M9.46741 10.7948C9.39393 10.7643 9.3097 10.7992 9.27926 10.8727C9.24883 10.9462 9.28372 11.0304 9.3572 11.0609C9.43067 11.0913 9.51491 11.0564 9.54534 10.9829C9.57578 10.9095 9.54088 10.8252 9.46741 10.7948Z" fill="#000088"/>
<path d="M12.723 9.29548L12.1954 10.8934L12.0811 11.691L12.3809 10.9431L12.723 9.29548Z" fill="#000088"/>
<path d="M9.86552 10.1809C9.80243 10.1325 9.71203 10.1444 9.66362 10.2075C9.61521 10.2706 9.62711 10.361 9.6902 10.4094C9.7533 10.4578 9.84369 10.4459 9.8921 10.3828C9.94052 10.3197 9.92862 10.2293 9.86552 10.1809Z" fill="#000088"/>
<path d="M13.3988 9.57574L12.4757 10.9827L12.1588 11.7235L12.6419 11.0787L13.3988 9.57574Z" fill="#000088"/>
<path d="M10.4082 9.69066C10.3597 9.62756 10.2693 9.61566 10.2063 9.66408C10.1432 9.71249 10.1313 9.80289 10.1797 9.86598C10.2281 9.92908 10.3185 9.94098 10.3816 9.89256C10.4447 9.84415 10.4566 9.75375 10.4082 9.69066Z" fill="#000088"/>
<path d="M13.9785 10.0205L12.7226 11.1406L12.2248 11.7742L12.8584 11.2764L13.9785 10.0205Z" fill="#000088"/>
<path d="M11.0623 9.35636C11.0319 9.28288 10.9476 9.24799 10.8741 9.27843C10.8007 9.30886 10.7658 9.3931 10.7962 9.46657C10.8266 9.54005 10.9109 9.57494 10.9844 9.5445C11.0578 9.51407 11.0927 9.42983 11.0623 9.35636Z" fill="#000088"/>
<path d="M14.4257 10.5987L12.9227 11.3556L12.2779 11.8387L13.0187 11.5219L14.4257 10.5987Z" fill="#000088"/>
<path d="M11.7782 9.20343C11.7678 9.12458 11.6955 9.06908 11.6167 9.07946C11.5378 9.08984 11.4823 9.16217 11.4927 9.24102C11.5031 9.31987 11.5754 9.37537 11.6542 9.36499C11.7331 9.35461 11.7886 9.28228 11.7782 9.20343Z" fill="#000088"/>
<path d="M14.7044 11.2742L13.0568 11.6163L12.3089 11.9161L13.1065 11.8017L14.7044 11.2742Z" fill="#000088"/>
<path d="M12.5075 9.2415C12.5178 9.16265 12.4623 9.09032 12.3835 9.07994C12.3046 9.06956 12.2323 9.12506 12.2219 9.20391C12.2115 9.28276 12.267 9.35509 12.3459 9.36548C12.4247 9.37586 12.4971 9.32035 12.5075 9.2415Z" fill="#000088"/>
<path d="M14.7981 11.9987L13.1181 11.9027L12.3181 11.9987L13.1181 12.0947L14.7981 11.9987Z" fill="#000088"/>
<path d="M13.204 9.46741C13.2344 9.39393 13.1995 9.3097 13.1261 9.27926C13.0526 9.24883 12.9684 9.28372 12.9379 9.3572C12.9075 9.43067 12.9424 9.51491 13.0159 9.54534C13.0893 9.57578 13.1736 9.54088 13.204 9.46741Z" fill="#000088"/>
<path d="M14.7035 12.7239L13.1056 12.1964L12.308 12.0821L13.0559 12.3819L14.7035 12.7239Z" fill="#000088"/>
<path d="M13.8181 9.86552C13.8665 9.80243 13.8546 9.71203 13.7915 9.66362C13.7284 9.61521 13.638 9.62711 13.5896 9.6902C13.5412 9.7533 13.5531 9.84369 13.6162 9.8921C13.6793 9.94052 13.7697 9.92862 13.8181 9.86552Z" fill="#000088"/>
<path d="M14.4223 13.3978L13.0154 12.4747L12.2746 12.1578L12.9194 12.641L14.4223 13.3978Z" fill="#000088"/>
<path d="M14.3091 10.4091C14.3722 10.3607 14.3841 10.2703 14.3357 10.2072C14.2873 10.1441 14.1969 10.1322 14.1338 10.1806C14.0707 10.2291 14.0588 10.3195 14.1072 10.3826C14.1556 10.4456 14.246 10.4575 14.3091 10.4091Z" fill="#000088"/>
<path d="M13.9778 13.9794L12.8577 12.7236L12.2241 12.2258L12.7219 12.8594L13.9778 13.9794Z" fill="#000088"/>
<path d="M14.6417 11.0613C14.7152 11.0309 14.7501 10.9466 14.7196 10.8732C14.6892 10.7997 14.605 10.7648 14.5315 10.7952C14.458 10.8257 14.4231 10.9099 14.4535 10.9834C14.484 11.0569 14.5682 11.0917 14.6417 11.0613Z" fill="#000088"/>
<path d="M13.3993 14.4237L12.6424 12.9208L12.1593 12.276L12.4762 13.0168L13.3993 14.4237Z" fill="#000088"/>
<path d="M14.7936 11.7772C14.8725 11.7669 14.928 11.6945 14.9176 11.6157C14.9072 11.5368 14.8349 11.4813 14.756 11.4917C14.6772 11.5021 14.6217 11.5744 14.6321 11.6533C14.6425 11.7321 14.7148 11.7876 14.7936 11.7772Z" fill="#000088"/>
<path d="M12.7229 14.7034L12.3808 13.0558L12.081 12.3079L12.1953 13.1055L12.7229 14.7034Z" fill="#000088"/>
</g>
<defs>
<clipPath id="clip0_12_583">
<rect width="24" height="24" rx="12" fill="white"/>
</clipPath>
</defs>
</svg>
