<svg width="113" height="36" viewBox="0 0 113 36" fill="none" xmlns="http://www.w3.org/2000/svg">
<g clip-path="url(#clip0_4_1282)">
<path d="M79.9749 33.5025C80.658 33.5025 81.0621 32.985 81.0621 32.1759C81.0621 31.3371 80.6283 30.8493 79.9893 30.8493C79.6239 30.8493 79.3701 31.0113 79.1802 31.2687H79.1712V29.943H78.7752V33.4287H79.1712V33.0975H79.1802C79.3854 33.3801 79.6338 33.5025 79.9749 33.5025ZM79.9461 33.1704C79.4097 33.1704 79.146 32.7465 79.146 32.1804C79.146 31.635 79.3998 31.1859 79.9506 31.1859C80.4285 31.1859 80.658 31.6152 80.658 32.1804C80.658 32.751 80.4285 33.1704 79.9461 33.1704ZM81.7308 34.263C82.0377 34.263 82.233 34.155 82.4373 33.633L83.5155 30.9078H83.0961L82.5201 32.4783C82.4427 32.688 82.3545 32.9706 82.3545 32.9706H82.3455C82.3455 32.9706 82.2519 32.688 82.1745 32.4783L81.5796 30.9078H81.1503L82.1349 33.3558L82.0377 33.6042C81.9405 33.8481 81.828 33.912 81.6624 33.912C81.5699 33.9167 81.4777 33.8981 81.3942 33.858H81.3744V34.209C81.4824 34.2531 81.5796 34.263 81.7308 34.263ZM84.5262 33.4287H85.1895V29.943H84.5262V33.4287ZM86.8113 33.5025C87.5862 33.5025 88.1181 32.9265 88.1181 32.1804C88.1181 31.4343 87.5871 30.8592 86.8113 30.8592C86.0364 30.8592 85.5045 31.4352 85.5045 32.1804C85.5045 32.9274 86.0355 33.5025 86.8113 33.5025ZM86.8113 32.9949C86.4018 32.9949 86.1777 32.6682 86.1777 32.1804C86.1777 31.6935 86.4018 31.3614 86.8113 31.3614C87.2163 31.3614 87.4449 31.6935 87.4449 32.1804C87.4449 32.6682 87.2163 32.9949 86.8113 32.9949ZM89.5284 34.2819C89.8992 34.2819 90.2205 34.1946 90.4302 33.9993C90.6156 33.8283 90.7281 33.5898 90.7281 33.2388V30.9276H90.0891V31.1913H90.0792C89.928 30.9816 89.6994 30.8592 89.3862 30.8592C88.7535 30.8592 88.3044 31.3371 88.3044 32.0832C88.3044 32.8392 88.8507 33.2775 89.4069 33.2775C89.7237 33.2775 89.9136 33.1515 90.0594 32.985H90.0747V33.2586C90.0747 33.5997 89.8947 33.7806 89.5185 33.7806C89.2116 33.7806 89.0703 33.6582 89.0163 33.5016H88.3584C88.4259 33.9894 88.8453 34.2819 89.5284 34.2819ZM89.5194 32.7465C89.1774 32.7465 88.9524 32.4981 88.9524 32.0733C88.9524 31.6539 89.1774 31.3911 89.514 31.3911C89.9136 31.3911 90.1089 31.7025 90.1089 32.0688C90.1089 32.4396 89.9379 32.7465 89.5185 32.7465H89.5194ZM92.34 33.5025C93.1149 33.5025 93.6468 32.9265 93.6468 32.1804C93.6468 31.4343 93.1149 30.8592 92.34 30.8592C91.5642 30.8592 91.0332 31.4352 91.0332 32.1804C91.0332 32.9274 91.5642 33.5025 92.34 33.5025ZM92.34 32.9949C91.9305 32.9949 91.7055 32.6682 91.7055 32.1804C91.7055 31.6935 91.9305 31.3614 92.34 31.3614C92.7441 31.3614 92.9736 31.6935 92.9736 32.1804C92.9736 32.6682 92.7441 32.9949 92.34 32.9949ZM93.9546 33.4287H94.6179V30.9276H93.9546V33.4287ZM93.9546 30.5379H94.6179V29.943H93.9546V30.5379ZM95.0454 34.2477H95.7087V33.147H95.7177C95.8599 33.3621 96.0885 33.5034 96.4395 33.5034C97.083 33.5034 97.5222 32.9904 97.5222 32.1813C97.5222 31.401 97.0983 30.8601 96.435 30.8601C96.2904 30.8578 96.1474 30.8913 96.019 30.9577C95.8905 31.0242 95.7805 31.1214 95.6988 31.2408H95.6844V30.9285H95.0454V34.2495V34.2477ZM96.2982 32.9517C95.9031 32.9517 95.6934 32.6538 95.6934 32.2002C95.6934 31.752 95.8599 31.3956 96.2739 31.3956C96.6834 31.3956 96.849 31.7268 96.849 32.2002C96.849 32.6736 96.6348 32.9517 96.2982 32.9517ZM98.8452 33.5025C99.4689 33.5025 99.8982 33.2001 99.8982 32.6979C99.8982 32.1129 99.4347 31.9959 99.0153 31.9077C98.6598 31.8348 98.3286 31.815 98.3286 31.6008C98.3286 31.4208 98.4987 31.3218 98.757 31.3218C99.0405 31.3218 99.2106 31.4208 99.2403 31.6881H99.8397C99.7911 31.1859 99.4257 30.8601 98.7669 30.8601C98.1963 30.8601 97.7481 31.1175 97.7481 31.6593C97.7481 32.2047 98.1864 32.3271 98.6355 32.4153C98.9766 32.4828 99.2934 32.5071 99.2934 32.7465C99.2934 32.922 99.1278 33.0345 98.8353 33.0345C98.5383 33.0345 98.3331 32.9076 98.289 32.6196H97.6752C97.7139 33.1506 98.1189 33.5025 98.8452 33.5025ZM102.416 33.4287V30.9276H101.753V32.3712C101.753 32.7024 101.562 32.9364 101.251 32.9364C100.968 32.9364 100.836 32.7753 100.836 32.4828V30.9276H100.178V32.5953C100.178 33.1416 100.49 33.4971 101.046 33.4971C101.397 33.4971 101.592 33.3657 101.763 33.1371H101.777V33.4287H102.416ZM102.845 33.4287H103.508V31.977C103.508 31.6449 103.688 31.4307 103.956 31.4307C104.2 31.4307 104.342 31.5774 104.342 31.86V33.4296H105.005V31.977C105.005 31.6449 105.176 31.4307 105.454 31.4307C105.698 31.4307 105.839 31.5774 105.839 31.86V33.4296H106.502V31.7475C106.502 31.2012 106.205 30.8601 105.678 30.8601C105.361 30.8601 105.098 31.0257 104.927 31.2993H104.918C104.857 31.1665 104.76 31.0541 104.637 30.976C104.514 30.898 104.37 30.8577 104.225 30.8601C104.078 30.8564 103.934 30.8921 103.806 30.9633C103.678 31.0346 103.572 31.1388 103.498 31.2651H103.484V30.9285H102.845V33.4305V33.4287Z" fill="#E5708C"/>
<path d="M106.633 1.93413C106.633 0.86943 107.496 0.00543008 108.561 0.00543008H109.847C110.358 0.00543008 110.849 0.208632 111.211 0.570333C111.572 0.932035 111.776 1.42261 111.776 1.93413C111.776 2.44565 111.572 2.93623 111.211 3.29793C110.849 3.65963 110.358 3.86283 109.847 3.86283H108.561C108.308 3.86283 108.057 3.81294 107.823 3.716C107.589 3.61906 107.376 3.47698 107.197 3.29787C107.018 3.11876 106.876 2.90614 106.779 2.67214C106.683 2.43815 106.633 2.18737 106.633 1.93413ZM52.641 12.861C52.641 19.9602 46.8864 25.7157 39.7863 25.7157C32.6871 25.7157 26.9316 19.9602 26.9316 12.861C26.9316 5.76003 32.6871 0.00633008 39.7863 0.00633008C46.8864 0.00633008 52.641 5.76003 52.641 12.861ZM24.4242 12.7971C25.1352 12.7971 25.7166 13.3731 25.6455 14.0805C25.4026 16.5014 24.4776 18.8035 22.978 20.7195C21.4785 22.6355 19.466 24.0865 17.1745 24.9041C14.8829 25.7216 12.4064 25.872 10.0328 25.3378C7.65915 24.8036 5.48585 23.6068 3.76545 21.8864C2.04506 20.166 0.848228 17.9927 0.314051 15.6191C-0.220126 13.2454 -0.0697122 10.7689 0.747812 8.4774C1.56534 6.18586 3.0164 4.17338 4.93236 2.67385C6.84832 1.17431 9.1505 0.249307 11.5713 0.00633008C12.2778 -0.0656699 12.8547 0.51753 12.8547 1.22673V11.511C12.8547 12.222 13.4307 12.7971 14.1408 12.7971H24.4242ZM70.6383 28.287C71.6611 28.287 72.6421 28.6933 73.3653 29.4166C74.0885 30.1398 74.4948 31.1207 74.4948 32.1435C74.4948 33.1663 74.0885 34.1473 73.3653 34.8705C72.6421 35.5937 71.6611 36 70.6383 36H64.2114C63.1886 36 62.2077 35.5937 61.4845 34.8705C60.7612 34.1473 60.3549 33.1663 60.3549 32.1435C60.3549 31.1207 60.7612 30.1398 61.4845 29.4166C62.2077 28.6933 63.1886 28.287 64.2114 28.287H70.6383ZM66.7818 25.7157C73.8819 25.7157 79.6374 19.9602 79.6374 12.861C79.6405 10.6803 79.0863 8.53492 78.0273 6.62853L80.1513 4.50453C80.396 4.25976 80.59 3.9692 80.7224 3.64943C80.8548 3.32967 80.9228 2.98697 80.9228 2.64089C80.9227 2.29482 80.8544 1.95215 80.7219 1.63245C80.5894 1.31275 80.3952 1.02228 80.1504 0.77763C79.9057 0.532977 79.6151 0.338932 79.2953 0.206572C78.9756 0.0742119 78.6329 0.00613018 78.2868 0.00621376C77.9407 0.00629734 77.5981 0.0745446 77.2784 0.207059C76.9587 0.339573 76.6682 0.533759 76.4235 0.77853L74.5695 2.63253C72.3328 0.924245 69.5954 0.000901437 66.7809 0.00543008C59.6826 0.00633008 53.928 5.76003 53.928 12.861C53.928 19.9602 59.6826 25.7157 66.7818 25.7157ZM106.633 12.861C106.633 19.9602 100.877 25.7157 93.7773 25.7157C86.6781 25.7157 80.9226 19.9602 80.9226 12.861C80.9226 5.76003 86.6781 0.00633008 93.7773 0.00633008C100.877 0.00633008 106.633 5.76093 106.633 12.861Z" fill="url(#paint0_linear_4_1282)"/>
</g>
<defs>
<linearGradient id="paint0_linear_4_1282" x1="3.52588e-05" y1="14.4" x2="107.1" y2="14.4" gradientUnits="userSpaceOnUse">
<stop stop-color="#64C2DB"/>
<stop offset="0.307" stop-color="#7476ED"/>
<stop offset="0.604" stop-color="#C994DF"/>
<stop offset="1" stop-color="#E56F8C"/>
</linearGradient>
<clipPath id="clip0_4_1282">
<rect width="112.5" height="36" fill="white"/>
</clipPath>
</defs>
</svg>
